<?xml version="1.0" standalone="no"?>
<!DOCTYPE svg PUBLIC "-//W3C//DTD SVG 20010904//EN"
 "http://www.w3.org/TR/2001/REC-SVG-20010904/DTD/svg10.dtd">
<svg version="1.0" xmlns="http://www.w3.org/2000/svg"
 width="512.000000pt" height="512.000000pt" viewBox="0 0 512.000000 512.000000"
 preserveAspectRatio="xMidYMid meet">

<g transform="translate(0.000000,512.000000) scale(0.100000,-0.100000)"
fill="#000000" stroke="none">
<path d="M2997 5096 c-79 -29 -157 -112 -178 -189 -14 -52 -13 -139 1 -183 7
-19 10 -37 8 -38 -1 -2 -25 -13 -51 -25 -61 -30 -151 -112 -193 -177 -76 -119
-98 -283 -55 -412 12 -34 21 -65 21 -70 0 -4 -20 -14 -45 -21 -106 -31 -249
-147 -313 -253 -198 -330 -36 -757 332 -874 66 -21 101 -25 187 -25 l105 0
104 -104 105 -105 58 0 c51 0 62 -4 88 -29 25 -26 29 -37 29 -87 l0 -57 85
-92 85 -93 0 -671 0 -671 79 0 78 0 25 -67 c31 -84 62 -112 107 -94 20 9 37
28 52 59 117 246 180 392 181 415 2 57 -77 91 -115 50 -8 -10 -40 -71 -69
-136 -29 -66 -58 -118 -63 -116 -6 1 -32 59 -60 128 l-50 126 -3 488 -2 489
272 279 c150 154 274 284 276 288 1 4 -17 13 -40 20 -24 7 -54 19 -68 26 -24
12 -31 6 -230 -188 -201 -196 -205 -200 -211 -171 -4 16 -7 136 -8 267 l-1
237 -70 0 -70 0 0 -270 c0 -148 -3 -270 -8 -270 -8 0 -402 392 -402 401 0 3
24 22 53 41 48 32 157 134 157 147 0 4 -26 19 -58 36 -90 47 -200 164 -250
265 -55 111 -72 184 -72 300 0 115 17 189 69 295 47 96 129 189 216 246 l63
42 -44 56 c-68 88 -96 167 -102 288 -4 83 -1 113 16 170 35 112 128 231 228
289 17 10 16 12 -16 29 -46 24 -181 31 -233 11z"/>
<path d="M154 3381 c-23 -10 -48 -85 -89 -266 -79 -354 -79 -756 1 -1115 73
-328 220 -655 416 -927 117 -163 101 -153 245 -153 l123 0 0 150 0 150 -155 0
-155 0 -32 29 c-30 26 -33 35 -36 100 l-4 71 -30 0 c-19 0 -40 10 -59 29 -28
28 -29 33 -29 121 0 88 1 93 29 121 l29 29 221 0 221 0 0 100 0 100 -221 0
-221 0 -29 29 c-28 28 -29 33 -29 121 0 88 1 93 29 121 l29 29 221 0 221 0 0
50 0 50 -221 0 -221 0 -29 29 c-28 28 -29 33 -29 121 0 88 1 93 29 121 l29 29
741 0 c613 0 741 2 741 13 0 43 -46 180 -87 260 -38 75 -64 109 -143 187 -78
79 -112 105 -187 143 -131 68 -220 89 -368 90 -81 0 -143 -5 -190 -17 -79 -19
-237 -92 -283 -131 -16 -14 -34 -25 -38 -25 -5 0 -18 21 -28 48 -26 61 -97
137 -161 170 -41 21 -67 26 -140 29 -50 1 -99 -1 -111 -6z"/>
<path d="M1000 2270 l0 -50 419 0 419 0 10 28 c6 15 14 37 17 50 l6 22 -435 0
-436 0 0 -50z"/>
<path d="M1000 1820 l0 -100 566 0 566 0 -30 52 c-17 29 -49 74 -72 100 l-41
48 -495 0 -494 0 0 -100z"/>
<path d="M1000 1070 l0 -150 494 0 494 0 42 47 c46 53 102 147 124 211 l15 42
-584 0 -585 0 0 -150z"/>
<path d="M1150 677 c-46 -23 -46 -53 -5 -166 43 -115 39 -112 209 -202 l90
-47 72 156 c76 163 87 207 56 235 -24 22 -75 22 -94 0 -9 -10 -41 -72 -71
-138 -30 -66 -59 -119 -63 -118 -4 1 -29 59 -55 130 -59 155 -81 179 -139 150z"/>
<path d="M2430 470 c-11 -11 -20 -33 -20 -50 0 -17 9 -39 20 -50 19 -19 33
-20 268 -20 284 0 292 2 292 70 0 68 -8 70 -292 70 -235 0 -249 -1 -268 -20z"/>
<path d="M3250 477 c-49 -25 -47 -51 11 -210 63 -171 36 -161 233 -84 l128 49
34 74 c38 82 43 123 16 147 -24 22 -75 22 -94 0 -9 -10 -41 -72 -71 -138 -30
-66 -59 -119 -63 -118 -4 1 -29 59 -55 130 -59 155 -81 179 -139 150z"/>
</g>
</svg>
